<svg width="16" height="16" viewBox="0 0 16 16" fill="none" xmlns="http://www.w3.org/2000/svg">
<rect width="16" height="16" rx="2" fill="#6366F1"/>
<circle cx="12" cy="4" r="2.65" stroke="#84CC16" stroke-width="0.7"/>
<circle cx="4" cy="12" r="2.65" stroke="#84CC16" stroke-width="0.7"/>
<path fill-rule="evenodd" clip-rule="evenodd" d="M9.09735 9.1058C9.15977 9.04355 9.24438 9.00858 9.3326 9.00858C9.42081 9.00858 9.50542 9.04355 9.56784 9.1058L11.9957 11.5302L14.4236 9.1058C14.454 9.07314 14.4908 9.04694 14.5316 9.02878C14.5725 9.01061 14.6165 9.00084 14.6612 9.00005C14.7059 8.99926 14.7503 9.00747 14.7918 9.02419C14.8332 9.04091 14.8709 9.0658 14.9025 9.09736C14.9341 9.12893 14.959 9.16653 14.9758 9.20792C14.9925 9.24931 15.0007 9.29364 14.9999 9.33828C14.9992 9.38291 14.9894 9.42693 14.9712 9.4677C14.953 9.50848 14.9268 9.54518 14.894 9.57561L12.4662 12L14.894 14.4244C14.9268 14.4548 14.953 14.4915 14.9712 14.5323C14.9894 14.5731 14.9992 14.6171 14.9999 14.6617C15.0007 14.7064 14.9925 14.7507 14.9758 14.7921C14.959 14.8335 14.9341 14.8711 14.9025 14.9026C14.8709 14.9342 14.8332 14.9591 14.7918 14.9758C14.7503 14.9925 14.7059 15.0007 14.6612 14.9999C14.6165 14.9992 14.5725 14.9894 14.5316 14.9712C14.4908 14.9531 14.454 14.9269 14.4236 14.8942L11.9957 12.4698L9.56784 14.8942C9.50473 14.9529 9.42127 14.9849 9.33503 14.9834C9.24879 14.9818 9.1665 14.947 9.10551 14.8861C9.04452 14.8252 9.00958 14.743 9.00806 14.6569C9.00654 14.5708 9.03855 14.4874 9.09735 14.4244L11.5252 12L9.09735 9.57561C9.03502 9.51328 9 9.42879 9 9.3407C9 9.25261 9.03502 9.16813 9.09735 9.1058Z" fill="#67E8F9"/>
<path fill-rule="evenodd" clip-rule="evenodd" d="M1.09735 1.1058C1.15977 1.04355 1.24438 1.00858 1.3326 1.00858C1.42081 1.00858 1.50542 1.04355 1.56784 1.1058L3.9957 3.53019L6.42357 1.1058C6.45404 1.07314 6.49079 1.04694 6.53163 1.02878C6.57246 1.01061 6.61654 1.00084 6.66124 1.00005C6.70594 0.999264 6.75033 1.00747 6.79178 1.02419C6.83324 1.04091 6.87089 1.0658 6.9025 1.09736C6.93411 1.12893 6.95903 1.16653 6.97577 1.20792C6.99252 1.24931 7.00074 1.29364 6.99995 1.33828C6.99916 1.38291 6.98938 1.42693 6.97118 1.4677C6.95299 1.50848 6.92676 1.54518 6.89405 1.57561L4.46618 4L6.89405 6.42439C6.92676 6.45482 6.95299 6.49152 6.97118 6.5323C6.98938 6.57307 6.99916 6.61709 6.99995 6.66172C7.00074 6.70636 6.99252 6.75069 6.97577 6.79208C6.95903 6.83347 6.93411 6.87107 6.9025 6.90264C6.87089 6.9342 6.83324 6.95909 6.79178 6.97581C6.75033 6.99253 6.70594 7.00074 6.66124 6.99995C6.61654 6.99916 6.57246 6.98939 6.53163 6.97122C6.49079 6.95306 6.45404 6.92686 6.42357 6.8942L3.9957 4.46981L1.56784 6.8942C1.50473 6.95292 1.42127 6.98488 1.33503 6.98336C1.24879 6.98185 1.1665 6.94696 1.10551 6.88606C1.04452 6.82515 1.00958 6.74299 1.00806 6.65687C1.00654 6.57075 1.03855 6.48741 1.09735 6.42439L3.52522 4L1.09735 1.57561C1.03502 1.51328 1 1.42879 1 1.3407C1 1.25261 1.03502 1.16813 1.09735 1.1058Z" fill="#67E8F9"/>
</svg>
