<svg width="132" height="55" viewBox="0 0 132 55" fill="none" xmlns="http://www.w3.org/2000/svg">
<g clip-path="url(#clip0_19_258)">
<path fill-rule="evenodd" clip-rule="evenodd" d="M53.07 29.86C52.15 31.04 51.69 32.6033 51.69 34.55V34.71C51.69 36.65 52.1533 38.22 53.08 39.42C53.58 40.0733 54.16 40.55 54.82 40.85C55.38 41.1033 55.9966 41.23 56.67 41.23C57.69 41.23 58.5633 40.9967 59.29 40.53C59.6633 40.2967 59.9966 40 60.29 39.64L60.4 41H62.39V23H60.22V29.6C59.9133 29.2467 59.57 28.9533 59.19 28.72C58.49 28.2933 57.6566 28.08 56.69 28.08C55.9566 28.08 55.2933 28.2233 54.7 28.51C54.08 28.81 53.5366 29.26 53.07 29.86ZM114.25 41H116.41V23H114.25V41ZM2.97998 23.93V41H8.88998C10.7033 41 12.1066 40.56 13.1 39.68C13.3866 39.4267 13.6333 39.1467 13.84 38.84C14.34 38.08 14.59 37.1567 14.59 36.07C14.59 35.31 14.4333 34.63 14.12 34.03C14.0266 33.8433 13.9166 33.6633 13.79 33.49C13.5966 33.2367 13.3833 33.01 13.15 32.81C12.7166 32.45 12.2 32.1867 11.6 32.02C12.2933 31.72 12.8566 31.3133 13.29 30.8C13.3433 30.7333 13.3966 30.6633 13.45 30.59C13.63 30.3567 13.7733 30.1067 13.88 29.84C14.0466 29.42 14.13 28.9667 14.13 28.48C14.13 27.3067 13.8466 26.36 13.28 25.64C13.12 25.4333 12.9366 25.2467 12.73 25.08C11.7966 24.3133 10.4033 23.93 8.54998 23.93H2.97998ZM72.71 23.93V41H77.44C78.9666 40.98 80.3066 40.6467 81.46 40C81.94 39.7333 82.37 39.4167 82.75 39.05C83.3033 38.5367 83.76 37.9233 84.12 37.21C84.74 35.9967 85.05 34.5867 85.05 32.98V31.89C85.0433 30.3167 84.73 28.9267 84.11 27.72C83.7366 26.9867 83.2666 26.3567 82.7 25.83C82.3266 25.4833 81.9166 25.18 81.47 24.92C81.39 24.8733 81.3066 24.8267 81.22 24.78C80.14 24.2133 78.91 23.93 77.53 23.93H72.71ZM8.61998 31.21H5.22998V25.78H8.54998C9.66998 25.78 10.5033 25.9933 11.05 26.42C11.13 26.4867 11.2033 26.5533 11.27 26.62C11.67 27.0533 11.87 27.67 11.87 28.47C11.87 28.9967 11.7533 29.4567 11.52 29.85C11.38 30.0833 11.2033 30.29 10.99 30.47C10.97 30.4833 10.9533 30.4967 10.94 30.51C10.36 30.9767 9.58665 31.21 8.61998 31.21ZM74.96 39.16V25.78H77.59C78.8233 25.7933 79.85 26.0967 80.67 26.69C80.9633 26.8967 81.2266 27.14 81.46 27.42C82.3733 28.4933 82.83 30 82.83 31.94V32.93C82.83 34.9233 82.3466 36.46 81.38 37.54C81.1466 37.8 80.8933 38.0267 80.62 38.22C79.7466 38.8467 78.65 39.16 77.33 39.16H74.96ZM17.74 31.19C17.2466 32.1767 17 33.2933 17 34.54V34.69C17 36.4167 17.41 37.8467 18.23 38.98C18.35 39.14 18.4733 39.2933 18.6 39.44C19.02 39.9133 19.4933 40.29 20.02 40.57C20.82 41.01 21.74 41.23 22.78 41.23C23.7066 41.23 24.5466 41.05 25.3 40.69C25.4733 40.6033 25.6433 40.51 25.81 40.41C26.11 40.2233 26.3833 40.0133 26.63 39.78C27.1233 39.32 27.5266 38.7667 27.84 38.12C28.3133 37.14 28.55 36.0333 28.55 34.8V34.64C28.55 32.88 28.1266 31.4267 27.28 30.28C27.1733 30.14 27.0633 30.0033 26.95 29.87C26.53 29.41 26.0633 29.0367 25.55 28.75C24.7433 28.3033 23.8133 28.08 22.76 28.08C21.88 28.08 21.08 28.2467 20.36 28.58C20.16 28.6667 19.9633 28.77 19.77 28.89C19.55 29.0233 19.3433 29.1733 19.15 29.34C18.57 29.8333 18.1 30.45 17.74 31.19ZM38.79 39.66C38.87 40.3 38.97 40.7467 39.09 41H41.37V40.81C41.07 40.1233 40.92 39.1967 40.92 38.03V32.19C40.9 31.2633 40.6666 30.48 40.22 29.84C40.0533 29.6 39.8566 29.38 39.63 29.18C39.6233 29.1733 39.6166 29.1633 39.61 29.15C38.7833 28.4367 37.6466 28.08 36.2 28.08C35.28 28.08 34.44 28.25 33.68 28.59C33.6733 28.59 33.6666 28.5933 33.66 28.6C32.9 28.94 32.2933 29.4 31.84 29.98C31.84 29.9867 31.8366 29.9933 31.83 30C31.4433 30.5067 31.2233 31.0333 31.17 31.58C31.1633 31.66 31.16 31.7433 31.16 31.83H33.34C33.34 31.6633 33.3633 31.5033 33.41 31.35C33.5233 30.9967 33.76 30.6833 34.12 30.41C34.1733 30.37 34.23 30.3333 34.29 30.3C34.7833 29.9867 35.3766 29.83 36.07 29.83C36.9366 29.83 37.5966 30.0467 38.05 30.48C38.0566 30.4867 38.0633 30.4933 38.07 30.5C38.17 30.6 38.26 30.7067 38.34 30.82C38.6133 31.2267 38.75 31.7233 38.75 32.31V33.31H36.64C34.82 33.31 33.41 33.6733 32.41 34.4C31.9833 34.7133 31.6466 35.08 31.4 35.5C31.0666 36.06 30.9 36.72 30.9 37.48C30.9 38.0467 31.01 38.5633 31.23 39.03C31.43 39.45 31.72 39.83 32.1 40.17C32.26 40.31 32.43 40.4367 32.61 40.55C33.3233 41.0033 34.18 41.23 35.18 41.23C35.7933 41.23 36.3666 41.13 36.9 40.93C37.5933 40.67 38.2233 40.2467 38.79 39.66ZM49.38 30.18C49.7666 30.18 50.1233 30.2067 50.45 30.26V28.25C50.23 28.1367 49.91 28.08 49.49 28.08C48.87 28.08 48.3167 28.2067 47.83 28.46C47.2966 28.7467 46.84 29.1867 46.46 29.78L46.43 28.32H44.32V41H46.49V32C46.71 31.4667 47.0166 31.0533 47.41 30.76C47.9233 30.3733 48.58 30.18 49.38 30.18ZM103.65 40.51C104.497 40.99 105.48 41.23 106.6 41.23C107.867 41.23 108.943 40.94 109.83 40.36C110.437 39.9667 110.957 39.44 111.39 38.78L110.06 37.75C109.713 38.2033 109.313 38.5767 108.86 38.87C108.793 38.91 108.73 38.95 108.67 38.99C108.137 39.3033 107.487 39.46 106.72 39.46C106.12 39.46 105.58 39.34 105.1 39.1C104.713 38.9133 104.367 38.65 104.06 38.31C103.96 38.1967 103.867 38.08 103.78 37.96C103.26 37.24 102.987 36.3467 102.96 35.28H111.55V34.37C111.55 32.35 111.093 30.7967 110.18 29.71C109.907 29.39 109.603 29.1167 109.27 28.89C108.477 28.35 107.5 28.08 106.34 28.08C105.893 28.08 105.463 28.1333 105.05 28.24C104.523 28.38 104.017 28.6067 103.53 28.92C103.297 29.0733 103.073 29.24 102.86 29.42C102.313 29.9133 101.863 30.52 101.51 31.24C101.03 32.2267 100.79 33.35 100.79 34.61V35.01C100.79 36.57 101.16 37.87 101.9 38.91C102.053 39.13 102.223 39.34 102.41 39.54C102.783 39.9267 103.197 40.25 103.65 40.51ZM127.04 36.74C127.193 36.9933 127.27 37.29 127.27 37.63C127.27 37.8633 127.227 38.0767 127.14 38.27C127.013 38.5367 126.807 38.7667 126.52 38.96C126.027 39.2933 125.37 39.46 124.55 39.46C123.657 39.46 122.94 39.2467 122.4 38.82C122.167 38.64 121.98 38.4333 121.84 38.2C121.653 37.88 121.547 37.51 121.52 37.09H119.35C119.35 37.3767 119.383 37.6567 119.45 37.93C119.557 38.37 119.747 38.7867 120.02 39.18C120.093 39.2933 120.173 39.4 120.26 39.5C120.673 39.9933 121.203 40.39 121.85 40.69C122.63 41.05 123.53 41.23 124.55 41.23C125.99 41.23 127.163 40.8867 128.07 40.2C128.53 39.86 128.873 39.46 129.1 39C129.32 38.5467 129.43 38.04 129.43 37.48C129.43 36.8333 129.283 36.28 128.99 35.82C128.977 35.8 128.963 35.7767 128.95 35.75C128.623 35.2767 128.123 34.8733 127.45 34.54C126.777 34.2 125.9 33.91 124.82 33.67C123.74 33.43 122.993 33.1767 122.58 32.91C122.4 32.7967 122.26 32.6567 122.16 32.49C122.027 32.2767 121.96 32.0233 121.96 31.73C121.96 31.4567 122.01 31.2133 122.11 31C122.223 30.7667 122.393 30.56 122.62 30.38C123.067 30.0333 123.687 29.86 124.48 29.86C125.087 29.86 125.61 29.9967 126.05 30.27C126.163 30.3367 126.273 30.4167 126.38 30.51C126.707 30.79 126.93 31.1033 127.05 31.45C127.11 31.6367 127.14 31.8333 127.14 32.04H129.32C129.32 31.4733 129.21 30.9533 128.99 30.48C128.763 30 128.423 29.57 127.97 29.19C127.903 29.1367 127.833 29.0833 127.76 29.03C126.9 28.3967 125.807 28.08 124.48 28.08C123.267 28.08 122.247 28.36 121.42 28.92C121.313 28.9933 121.21 29.0733 121.11 29.16C120.563 29.6067 120.187 30.1133 119.98 30.68C119.853 31.0267 119.79 31.4 119.79 31.8C119.79 32.3333 119.903 32.8067 120.13 33.22C120.17 33.2867 120.21 33.35 120.25 33.41C120.557 33.8633 121.033 34.2533 121.68 34.58C122.327 34.9133 123.197 35.1967 124.29 35.43C125.39 35.6633 126.16 35.9433 126.6 36.27C126.787 36.4033 126.933 36.56 127.04 36.74ZM95.39 40.27C95.59 40.1167 95.7733 39.94 95.94 39.74L95.99 41H98.05V28.32H95.88V37.54C95.7 37.9467 95.4566 38.29 95.15 38.57C94.5366 39.1167 93.68 39.39 92.58 39.39C91.9533 39.39 91.4533 39.2367 91.08 38.93C90.5133 38.47 90.23 37.6633 90.23 36.51V28.32H88.07V36.57C88.0766 38.1033 88.4333 39.2633 89.14 40.05C89.2466 40.1767 89.3633 40.29 89.49 40.39C90.17 40.95 91.0833 41.23 92.23 41.23C93.5366 41.23 94.59 40.91 95.39 40.27ZM20.16 38.18C19.5066 37.3333 19.18 36.2067 19.18 34.8C19.18 33.2133 19.51 31.9933 20.17 31.14C20.4966 30.7067 20.88 30.3833 21.32 30.17C21.7466 29.9633 22.2266 29.86 22.76 29.86C23.3133 29.86 23.8133 29.9733 24.26 30.2C24.6866 30.4133 25.0633 30.7333 25.39 31.16C26.05 32.02 26.38 33.1467 26.38 34.54C26.38 36.0933 26.0566 37.3 25.41 38.16C25.0966 38.5733 24.7366 38.8867 24.33 39.1C23.8766 39.34 23.36 39.46 22.78 39.46C22.2066 39.46 21.6933 39.3433 21.24 39.11C20.8333 38.8967 20.4733 38.5867 20.16 38.18ZM105.11 30.11C105.483 29.9433 105.893 29.86 106.34 29.86C106.947 29.86 107.467 29.9967 107.9 30.27C108.12 30.4033 108.317 30.57 108.49 30.77C109.023 31.3767 109.32 32.23 109.38 33.33V33.5H103.03C103.17 32.3467 103.537 31.4533 104.13 30.82C104.423 30.5067 104.75 30.27 105.11 30.11ZM54.75 38.17C54.1566 37.3567 53.86 36.2333 53.86 34.8C53.86 33.1867 54.1566 31.97 54.75 31.15C55.01 30.79 55.3166 30.5067 55.67 30.3C56.1166 30.0467 56.6366 29.92 57.23 29.92C57.89 29.92 58.4633 30.0633 58.95 30.35C59.4633 30.65 59.8867 31.1033 60.22 31.71V37.54C59.9 38.1667 59.4833 38.6333 58.97 38.94C58.47 39.24 57.8833 39.39 57.21 39.39C56.6366 39.39 56.13 39.2667 55.69 39.02C55.33 38.82 55.0166 38.5367 54.75 38.17ZM64.55 34.63H70.26V32.86H64.55V34.63ZM5.22998 39.16V33.01H8.97998C10.1866 33.01 11.0666 33.3133 11.62 33.92C12.0933 34.4267 12.33 35.1533 12.33 36.1C12.33 36.7933 12.1666 37.38 11.84 37.86C11.72 38.0333 11.58 38.1933 11.42 38.34C11.3866 38.3733 11.35 38.4033 11.31 38.43C10.7166 38.9167 9.92665 39.16 8.93998 39.16H5.22998ZM36.24 39.27C35.9933 39.3167 35.7466 39.34 35.5 39.34C34.8866 39.34 34.37 39.2 33.95 38.92C33.8766 38.8733 33.81 38.8233 33.75 38.77C33.61 38.65 33.49 38.5167 33.39 38.37C33.1766 38.0433 33.07 37.6433 33.07 37.17C33.07 36.7767 33.1566 36.4333 33.33 36.14C33.8366 35.2733 35.0766 34.84 37.05 34.84H38.75V37.44C38.7033 37.54 38.6533 37.6333 38.6 37.72C38.3266 38.16 37.9366 38.5267 37.43 38.82C37.0433 39.04 36.6466 39.19 36.24 39.27Z" fill="url(#paint0_radial_19_258)"/>
<path fill-rule="evenodd" clip-rule="evenodd" d="M6.14004 12.4201C6.46004 11.8501 7.53004 11.8501 7.85004 12.4201L9.32004 15.0601L13.14 15.2901C13.96 15.3401 14.3 16.1001 13.67 16.5001L10.76 18.3601L11.65 21.1401C11.84 21.7401 10.97 22.2101 10.26 21.8901L7.00004 20.4001L3.73004 21.8901C3.02004 22.2101 2.15004 21.7401 2.34004 21.1401L3.23004 18.3601L0.320045 16.5001C-0.309955 16.1001 0.0300446 15.3401 0.850045 15.2901L4.67004 15.0601L6.14004 12.4201Z" fill="#FFD700"/>
<path fill-rule="evenodd" clip-rule="evenodd" d="M19.14 9.42005C19.46 8.85005 20.53 8.85005 20.85 9.42005L22.32 12.0601L26.14 12.2901C26.96 12.3401 27.3 13.1001 26.67 13.5001L23.76 15.3601L24.65 18.1401C24.84 18.7401 23.97 19.2101 23.26 18.8901L20 17.4001L16.73 18.8901C16.02 19.2101 15.15 18.7401 15.34 18.1401L16.23 15.3601L13.32 13.5001C12.69 13.1001 13.03 12.3401 13.85 12.2901L17.67 12.0601L19.14 9.42005Z" fill="#FFD700"/>
<path fill-rule="evenodd" clip-rule="evenodd" d="M32.14 6.42005C32.46 5.85005 33.53 5.85005 33.85 6.42005L35.32 9.06005L39.14 9.29005C39.96 9.34005 40.3 10.1001 39.67 10.5001L36.76 12.3601L37.65 15.1401C37.84 15.7401 36.97 16.2101 36.26 15.8901L33 14.4001L29.73 15.8901C29.02 16.2101 28.15 15.7401 28.34 15.1401L29.23 12.3601L26.32 10.5001C25.69 10.1001 26.03 9.34005 26.85 9.29005L30.67 9.06005L32.14 6.42005Z" fill="#FFD700"/>
<path fill-rule="evenodd" clip-rule="evenodd" d="M45.14 3.42005C45.46 2.85005 46.53 2.85005 46.85 3.42005L48.32 6.06005L52.14 6.29005C52.96 6.34005 53.3 7.10005 52.67 7.50005L49.76 9.36005L50.65 12.1401C50.84 12.7401 49.97 13.2101 49.26 12.8901L46 11.4001L42.73 12.8901C42.02 13.2101 41.15 12.7401 41.34 12.1401L42.23 9.36005L39.32 7.50005C38.69 7.10005 39.03 6.34005 39.85 6.29005L43.67 6.06005L45.14 3.42005Z" fill="#FFD700"/>
<path fill-rule="evenodd" clip-rule="evenodd" d="M58.14 0.420054C58.46 -0.149946 59.53 -0.149946 59.85 0.420054L61.32 3.06005L65.14 3.29005C65.96 3.34005 66.3 4.10005 65.67 4.50005L62.76 6.36005L63.65 9.14005C63.84 9.74005 62.97 10.2101 62.26 9.89005L59 8.40005L55.73 9.89005C55.02 10.2101 54.15 9.74005 54.34 9.14005L55.23 6.36005L52.32 4.50005C51.69 4.10005 52.03 3.34005 52.85 3.29005L56.67 3.06005L58.14 0.420054Z" fill="#FFD700"/>
<path fill-rule="evenodd" clip-rule="evenodd" d="M72.14 0.420054C72.46 -0.149946 73.53 -0.149946 73.85 0.420054L75.32 3.06005L79.14 3.29005C79.96 3.34005 80.3 4.10005 79.67 4.50005L76.76 6.36005L77.65 9.14005C77.84 9.74005 76.97 10.2101 76.26 9.89005L73 8.40005L69.73 9.89005C69.02 10.2101 68.15 9.74005 68.34 9.14005L69.23 6.36005L66.32 4.50005C65.69 4.10005 66.03 3.34005 66.85 3.29005L70.67 3.06005L72.14 0.420054Z" fill="#FFD700"/>
<path fill-rule="evenodd" clip-rule="evenodd" d="M85.14 3.42005C85.46 2.85005 86.53 2.85005 86.85 3.42005L88.32 6.06005L92.14 6.29005C92.96 6.34005 93.3 7.10005 92.67 7.50005L89.76 9.36005L90.65 12.1401C90.84 12.7401 89.97 13.2101 89.26 12.8901L86 11.4001L82.73 12.8901C82.02 13.2101 81.15 12.7401 81.34 12.1401L82.23 9.36005L79.32 7.50005C78.69 7.10005 79.03 6.34005 79.85 6.29005L83.67 6.06005L85.14 3.42005Z" fill="#FFD700"/>
<path fill-rule="evenodd" clip-rule="evenodd" d="M98.14 6.42005C98.46 5.85005 99.53 5.85005 99.85 6.42005L101.32 9.06005L105.14 9.29005C105.96 9.34005 106.3 10.1001 105.67 10.5001L102.76 12.3601L103.65 15.1401C103.84 15.7401 102.97 16.2101 102.26 15.8901L99 14.4001L95.73 15.8901C95.02 16.2101 94.15 15.7401 94.34 15.1401L95.23 12.3601L92.32 10.5001C91.69 10.1001 92.03 9.34005 92.85 9.29005L96.67 9.06005L98.14 6.42005Z" fill="#FFD700"/>
<path fill-rule="evenodd" clip-rule="evenodd" d="M111.14 9.42005C111.46 8.85005 112.54 8.85005 112.85 9.42005L114.32 12.0601L118.14 12.2901C118.96 12.3401 119.3 13.1001 118.67 13.5001L115.76 15.3601L116.65 18.1401C116.84 18.7401 115.97 19.2101 115.26 18.8901L112 17.4001L108.73 18.8901C108.02 19.2101 107.15 18.7401 107.34 18.1401L108.23 15.3601L105.32 13.5001C104.69 13.1001 105.03 12.3401 105.85 12.2901L109.67 12.0601L111.14 9.42005Z" fill="#FFD700"/>
<path fill-rule="evenodd" clip-rule="evenodd" d="M124.14 12.4201C124.46 11.8501 125.54 11.8501 125.85 12.4201L127.32 15.0601L131.14 15.2901C131.96 15.3401 132.3 16.1001 131.67 16.5001L128.76 18.3601L129.65 21.1401C129.84 21.7401 128.97 22.2101 128.26 21.8901L125 20.4001L121.73 21.8901C121.02 22.2101 120.15 21.7401 120.34 21.1401L121.23 18.3601L118.32 16.5001C117.69 16.1001 118.03 15.3401 118.85 15.2901L122.67 15.0601L124.14 12.4201Z" fill="#FFD700"/>
<path fill-rule="evenodd" clip-rule="evenodd" d="M97.96 48.77C97.6667 48.5967 97.3234 48.51 96.93 48.51C96.6767 48.51 96.44 48.5534 96.22 48.64C95.9 48.76 95.6134 48.9667 95.36 49.26C95.4334 48.8067 95.59 48.4467 95.83 48.18C96.07 47.9067 96.4334 47.7134 96.92 47.6L97.53 47.46C97.89 47.3734 98.1534 47.23 98.32 47.03C98.4867 46.8234 98.57 46.5367 98.57 46.17H97.9C97.9 46.27 97.88 46.36 97.84 46.44C97.8 46.5 97.7467 46.5567 97.68 46.61C97.54 46.71 97.2634 46.7967 96.85 46.87C96.43 46.95 96.07 47.1034 95.77 47.33C95.55 47.4967 95.3634 47.7034 95.21 47.95C94.8434 48.5367 94.66 49.33 94.66 50.33V50.73C94.66 51.3634 94.81 51.8834 95.11 52.29C95.15 52.3434 95.1934 52.3934 95.24 52.44C95.3734 52.5934 95.5234 52.7167 95.69 52.81C96.0034 52.99 96.3667 53.08 96.78 53.08C97.1467 53.08 97.4767 53.0067 97.77 52.86C97.8167 52.84 97.86 52.8167 97.9 52.79C98.02 52.7167 98.1334 52.6334 98.24 52.54C98.4 52.38 98.5367 52.19 98.65 51.97C98.8234 51.6167 98.91 51.2167 98.91 50.77V50.69C98.91 50.13 98.7767 49.6634 98.51 49.29C98.4634 49.23 98.4167 49.17 98.37 49.11C98.2434 48.9767 98.1067 48.8634 97.96 48.77ZM28.28 47.1C28.38 46.9334 28.43 46.7367 28.43 46.51H27.77C27.77 46.69 27.7267 46.8367 27.64 46.95C27.6267 46.9634 27.6134 46.9767 27.6 46.99C27.5867 47.0034 27.57 47.0167 27.55 47.03C27.4367 47.1167 27.2934 47.16 27.12 47.16C26.92 47.16 26.7667 47.1134 26.66 47.02C26.6467 47.0067 26.6367 46.9967 26.63 46.99C26.6167 46.9767 26.6067 46.9634 26.6 46.95C26.5067 46.8434 26.46 46.6967 26.46 46.51H25.8C25.8 46.7234 25.8467 46.9134 25.94 47.08C25.9934 47.1867 26.0667 47.28 26.16 47.36C26.2 47.3934 26.24 47.4234 26.28 47.45C26.5067 47.61 26.7867 47.69 27.12 47.69C27.4534 47.69 27.7334 47.61 27.96 47.45C28 47.4234 28.0367 47.3934 28.07 47.36C28.1567 47.2867 28.2267 47.2 28.28 47.1ZM70.6 47.1C70.6934 46.9334 70.74 46.7367 70.74 46.51H70.08C70.08 46.69 70.0367 46.8367 69.95 46.95C69.9367 46.9634 69.9234 46.9767 69.91 46.99C69.8967 47.0034 69.88 47.0167 69.86 47.03C69.7534 47.1167 69.61 47.16 69.43 47.16C69.23 47.16 69.0767 47.1134 68.97 47.02C68.9567 47.0067 68.9467 46.9967 68.94 46.99C68.9267 46.9767 68.9167 46.9634 68.91 46.95C68.8167 46.8434 68.77 46.6967 68.77 46.51H68.11C68.11 46.7234 68.1567 46.9134 68.25 47.08C68.3034 47.1867 68.3767 47.28 68.47 47.36C68.51 47.3934 68.55 47.4234 68.59 47.45C68.8167 47.61 69.0967 47.69 69.43 47.69C69.7634 47.69 70.0434 47.61 70.27 47.45C70.31 47.4234 70.3467 47.3934 70.38 47.36C70.4667 47.2867 70.54 47.2 70.6 47.1ZM124.96 47.1C125.053 46.9334 125.1 46.7367 125.1 46.51H124.44C124.44 46.69 124.397 46.8367 124.31 46.95C124.297 46.9634 124.283 46.9767 124.27 46.99C124.257 47.0034 124.24 47.0167 124.22 47.03C124.113 47.1167 123.97 47.16 123.79 47.16C123.59 47.16 123.437 47.1134 123.33 47.02C123.317 47.0067 123.307 46.9967 123.3 46.99C123.287 46.9767 123.277 46.9634 123.27 46.95C123.177 46.8434 123.13 46.6967 123.13 46.51H122.47C122.47 46.7234 122.517 46.9134 122.61 47.08C122.663 47.1867 122.737 47.28 122.83 47.36C122.87 47.3934 122.91 47.4234 122.95 47.45C123.177 47.61 123.457 47.69 123.79 47.69C124.123 47.69 124.403 47.61 124.63 47.45C124.67 47.4234 124.707 47.3934 124.74 47.36C124.827 47.2867 124.9 47.2 124.96 47.1ZM18.71 52.42C19.0434 51.98 19.21 51.3967 19.21 50.67V50.6C19.21 49.8267 19.0434 49.2267 18.71 48.8C18.5634 48.6134 18.3934 48.4667 18.2 48.36C17.9534 48.22 17.67 48.15 17.35 48.15C16.97 48.15 16.6434 48.2367 16.37 48.41C16.2234 48.5034 16.09 48.6234 15.97 48.77L15.93 48.24H15.19V54.82H16V52.53C16.0934 52.63 16.1934 52.7167 16.3 52.79C16.5867 52.9834 16.9434 53.08 17.37 53.08C17.6634 53.08 17.9267 53.02 18.16 52.9C18.3734 52.7867 18.5567 52.6267 18.71 52.42ZM23.06 52.49C23.0867 52.73 23.1234 52.9 23.17 53H24.03V52.92C23.9167 52.6667 23.86 52.32 23.86 51.88V49.69C23.8534 49.3434 23.7667 49.05 23.6 48.81C23.5334 48.7234 23.46 48.64 23.38 48.56C23.3734 48.56 23.37 48.5567 23.37 48.55C23.0567 48.2834 22.63 48.15 22.09 48.15C21.7434 48.15 21.4267 48.2134 21.14 48.34C21.14 48.34 21.14 48.3434 21.14 48.35C20.8534 48.4767 20.6267 48.65 20.46 48.87C20.4534 48.87 20.45 48.87 20.45 48.87C20.3034 49.0634 20.22 49.26 20.2 49.46C20.2 49.4934 20.2 49.5267 20.2 49.56H21.02C21.02 49.4934 21.0267 49.4334 21.04 49.38C21.0867 49.2467 21.1767 49.13 21.31 49.03C21.33 49.01 21.35 48.9934 21.37 48.98C21.5567 48.8667 21.78 48.81 22.04 48.81C22.3667 48.81 22.6134 48.89 22.78 49.05C22.7867 49.0567 22.79 49.06 22.79 49.06C22.83 49.1 22.8634 49.14 22.89 49.18C22.9967 49.3334 23.05 49.52 23.05 49.74V50.11H22.26C21.5734 50.11 21.0434 50.2467 20.67 50.52C20.51 50.64 20.3834 50.7767 20.29 50.93C20.1634 51.1434 20.1 51.3934 20.1 51.68C20.1 51.8934 20.1434 52.0867 20.23 52.26C20.3034 52.42 20.41 52.5634 20.55 52.69C20.61 52.7367 20.6734 52.7834 20.74 52.83C21.0067 52.9967 21.33 53.08 21.71 53.08C21.9367 53.08 22.15 53.0434 22.35 52.97C22.61 52.8767 22.8467 52.7167 23.06 52.49ZM36.08 52.42C36.4067 51.98 36.57 51.3967 36.57 50.67V50.6C36.57 49.8267 36.4034 49.2267 36.07 48.8C35.93 48.6134 35.7634 48.4667 35.57 48.36C35.3234 48.22 35.04 48.15 34.72 48.15C34.34 48.15 34.0134 48.2367 33.74 48.41C33.5867 48.5034 33.4534 48.6234 33.34 48.77L33.3 48.24H32.56V54.82H33.37V52.53C33.4567 52.63 33.5567 52.7167 33.67 52.79C33.9567 52.9834 34.31 53.08 34.73 53.08C35.03 53.08 35.2967 53.02 35.53 52.9C35.7367 52.7867 35.92 52.6267 36.08 52.42ZM40.43 52.49C40.4567 52.73 40.4934 52.9 40.54 53H41.39V52.92C41.2834 52.6667 41.23 52.32 41.23 51.88V49.69C41.2167 49.3434 41.13 49.05 40.97 48.81C40.9034 48.7234 40.8267 48.64 40.74 48.56C40.74 48.56 40.7367 48.5567 40.73 48.55C40.4234 48.2834 40 48.15 39.46 48.15C39.1134 48.15 38.7967 48.2134 38.51 48.34C38.51 48.34 38.5067 48.3434 38.5 48.35C38.22 48.4767 37.9934 48.65 37.82 48.87C37.6734 49.0634 37.59 49.26 37.57 49.46C37.57 49.4934 37.57 49.5267 37.57 49.56H38.38C38.38 49.4934 38.39 49.4334 38.41 49.38C38.45 49.2467 38.54 49.13 38.68 49.03C38.7 49.01 38.72 48.9934 38.74 48.98C38.9267 48.8667 39.15 48.81 39.41 48.81C39.7367 48.81 39.9834 48.89 40.15 49.05C40.15 49.0567 40.1534 49.06 40.16 49.06C40.2 49.1 40.2334 49.14 40.26 49.18C40.36 49.3334 40.41 49.52 40.41 49.74V50.11H39.62C38.94 50.11 38.41 50.2467 38.03 50.52C37.87 50.64 37.7467 50.7767 37.66 50.93C37.5334 51.1434 37.47 51.3934 37.47 51.68C37.47 51.8934 37.51 52.0867 37.59 52.26C37.67 52.42 37.78 52.5634 37.92 52.69C37.98 52.7367 38.0434 52.7834 38.11 52.83C38.3767 52.9967 38.6967 53.08 39.07 53.08C39.3034 53.08 39.52 53.0434 39.72 52.97C39.98 52.8767 40.2167 52.7167 40.43 52.49ZM65.37 52.49C65.3967 52.73 65.4367 52.9 65.49 53H66.34V52.92C66.2267 52.6667 66.17 52.32 66.17 51.88V49.69C66.1634 49.3434 66.0767 49.05 65.91 48.81C65.85 48.7234 65.7767 48.64 65.69 48.56C65.6834 48.56 65.68 48.5567 65.68 48.55C65.3667 48.2834 64.94 48.15 64.4 48.15C64.0534 48.15 63.7367 48.2134 63.45 48.34V48.35C63.1634 48.4767 62.9367 48.65 62.77 48.87H62.76C62.6134 49.0634 62.53 49.26 62.51 49.46C62.51 49.4934 62.51 49.5267 62.51 49.56H63.33C63.33 49.4934 63.3367 49.4334 63.35 49.38C63.3967 49.2467 63.4867 49.13 63.62 49.03C63.64 49.01 63.66 48.9934 63.68 48.98C63.8667 48.8667 64.09 48.81 64.35 48.81C64.6767 48.81 64.9234 48.89 65.09 49.05C65.0967 49.0567 65.1 49.06 65.1 49.06C65.14 49.1 65.1734 49.14 65.2 49.18C65.3067 49.3334 65.36 49.52 65.36 49.74V50.11H64.57C63.8834 50.11 63.3534 50.2467 62.98 50.52C62.82 50.64 62.6934 50.7767 62.6 50.93C62.4734 51.1434 62.41 51.3934 62.41 51.68C62.41 51.8934 62.4534 52.0867 62.54 52.26C62.6134 52.42 62.72 52.5634 62.86 52.69C62.92 52.7367 62.9834 52.7834 63.05 52.83C63.3167 52.9967 63.64 53.08 64.02 53.08C64.2467 53.08 64.46 53.0434 64.66 52.97C64.92 52.8767 65.1567 52.7167 65.37 52.49ZM75.02 52.33C74.8734 52.39 74.7167 52.42 74.55 52.42C74.2767 52.42 74.0434 52.3567 73.85 52.23C73.75 52.1634 73.66 52.08 73.58 51.98C73.3534 51.68 73.24 51.2567 73.24 50.71V50.56C73.24 49.9934 73.3534 49.5634 73.58 49.27C73.6667 49.1567 73.7667 49.0634 73.88 48.99C74.0667 48.8767 74.2867 48.82 74.54 48.82C74.7334 48.82 74.9067 48.8567 75.06 48.93C75.1534 48.9767 75.24 49.04 75.32 49.12C75.3934 49.1934 75.4567 49.2734 75.51 49.36C75.6034 49.5067 75.6567 49.6767 75.67 49.87H76.44C76.42 49.5567 76.3434 49.28 76.21 49.04C76.1167 48.8867 76.0034 48.75 75.87 48.63C75.77 48.5367 75.6634 48.46 75.55 48.4C75.2567 48.2334 74.92 48.15 74.54 48.15C74.1334 48.15 73.7767 48.24 73.47 48.42C73.45 48.4267 73.4334 48.4367 73.42 48.45C73.32 48.51 73.2267 48.58 73.14 48.66C72.9534 48.8334 72.8 49.0434 72.68 49.29C72.5134 49.65 72.43 50.0634 72.43 50.53V50.66C72.43 51.3867 72.6067 51.9634 72.96 52.39C72.9734 52.4034 72.9867 52.4167 73 52.43C73.1267 52.5767 73.27 52.6967 73.43 52.79C73.7434 52.9834 74.1167 53.08 74.55 53.08C74.7034 53.08 74.8534 53.0634 75 53.03C75.16 52.9967 75.3134 52.94 75.46 52.86C75.6934 52.7467 75.89 52.5967 76.05 52.41C76.09 52.37 76.1267 52.3234 76.16 52.27C76.3 52.0767 76.3867 51.87 76.42 51.65C76.4267 51.5967 76.4334 51.5467 76.44 51.5H75.67C75.6567 51.6067 75.63 51.7067 75.59 51.8C75.53 51.9334 75.4367 52.0534 75.31 52.16C75.2167 52.2267 75.12 52.2834 75.02 52.33ZM89.77 49.32C89.59 49.6867 89.5 50.1034 89.5 50.57V50.63C89.5 51.2767 89.6534 51.8134 89.96 52.24C90 52.3 90.0467 52.3567 90.1 52.41C90.2534 52.59 90.43 52.7334 90.63 52.84C90.93 53 91.2734 53.08 91.66 53.08C92.0067 53.08 92.3234 53.0134 92.61 52.88C92.6767 52.8467 92.74 52.8134 92.8 52.78C92.9134 52.7067 93.0167 52.6267 93.11 52.54C93.29 52.3667 93.44 52.16 93.56 51.92C93.74 51.5467 93.83 51.13 93.83 50.67V50.61C93.83 49.95 93.67 49.4067 93.35 48.98C93.31 48.9267 93.27 48.8734 93.23 48.82C93.07 48.6467 92.8934 48.5067 92.7 48.4C92.4 48.2334 92.05 48.15 91.65 48.15C91.3234 48.15 91.0267 48.2134 90.76 48.34C90.68 48.3734 90.6067 48.4134 90.54 48.46C90.4534 48.5067 90.3734 48.5634 90.3 48.63C90.0867 48.81 89.91 49.04 89.77 49.32ZM100.68 52.81C101 52.99 101.37 53.08 101.79 53.08C102.263 53.08 102.667 52.9734 103 52.76C103.227 52.6134 103.423 52.4134 103.59 52.16L103.09 51.78C102.957 51.9467 102.807 52.0867 102.64 52.2C102.613 52.2134 102.59 52.2267 102.57 52.24C102.37 52.36 102.127 52.42 101.84 52.42C101.613 52.42 101.41 52.3767 101.23 52.29C101.083 52.2167 100.953 52.1167 100.84 51.99C100.8 51.9434 100.763 51.9 100.73 51.86C100.537 51.5867 100.437 51.25 100.43 50.85H103.65V50.51C103.65 49.75 103.477 49.1667 103.13 48.76C103.03 48.64 102.917 48.54 102.79 48.46C102.497 48.2534 102.13 48.15 101.69 48.15C101.523 48.15 101.363 48.17 101.21 48.21C101.01 48.2634 100.82 48.35 100.64 48.47C100.553 48.5234 100.47 48.5867 100.39 48.66C100.183 48.84 100.013 49.0667 99.88 49.34C99.7 49.7067 99.61 50.1267 99.61 50.6V50.75C99.61 51.3367 99.75 51.8234 100.03 52.21C100.083 52.2967 100.147 52.3767 100.22 52.45C100.36 52.5967 100.513 52.7167 100.68 52.81ZM119.73 52.49C119.763 52.73 119.803 52.9 119.85 53H120.7V52.92C120.587 52.6667 120.53 52.32 120.53 51.88V49.69C120.523 49.3434 120.437 49.05 120.27 48.81C120.21 48.7234 120.137 48.64 120.05 48.56C120.043 48.56 120.04 48.5567 120.04 48.55C119.727 48.2834 119.3 48.15 118.76 48.15C118.42 48.15 118.103 48.2134 117.81 48.34V48.35C117.523 48.4767 117.297 48.65 117.13 48.87H117.12C116.973 49.0634 116.893 49.26 116.88 49.46C116.873 49.4934 116.87 49.5267 116.87 49.56H117.69C117.69 49.4934 117.7 49.4334 117.72 49.38C117.76 49.2467 117.847 49.13 117.98 49.03C118 49.01 118.02 48.9934 118.04 48.98C118.227 48.8667 118.45 48.81 118.71 48.81C119.037 48.81 119.283 48.89 119.45 49.05C119.457 49.0567 119.46 49.06 119.46 49.06C119.5 49.1 119.533 49.14 119.56 49.18C119.667 49.3334 119.72 49.52 119.72 49.74V50.11H118.93C118.243 50.11 117.713 50.2467 117.34 50.52C117.18 50.64 117.053 50.7767 116.96 50.93C116.833 51.1434 116.77 51.3934 116.77 51.68C116.77 51.8934 116.813 52.0867 116.9 52.26C116.973 52.42 117.08 52.5634 117.22 52.69C117.28 52.7367 117.343 52.7834 117.41 52.83C117.683 52.9967 118.007 53.08 118.38 53.08C118.607 53.08 118.82 53.0434 119.02 52.97C119.28 52.8767 119.517 52.7167 119.73 52.49ZM45.04 49.22C45.0934 49.3134 45.12 49.42 45.12 49.54C45.12 49.7134 45.0767 49.8534 44.99 49.96C44.8634 50.1267 44.63 50.2167 44.29 50.23H43.4V50.91H44.22C44.5534 50.91 44.8 50.97 44.96 51.09C44.9867 51.1034 45.01 51.1234 45.03 51.15C45.1434 51.27 45.2 51.44 45.2 51.66C45.2 51.76 45.18 51.8534 45.14 51.94C45.0934 52.0467 45.0167 52.14 44.91 52.22C44.7234 52.36 44.4734 52.43 44.16 52.43C43.9067 52.43 43.6867 52.3734 43.5 52.26C43.4667 52.24 43.43 52.2134 43.39 52.18C43.25 52.0734 43.1567 51.9467 43.11 51.8C43.09 51.7334 43.08 51.6634 43.08 51.59H42.27C42.27 51.83 42.32 52.0467 42.42 52.24C42.5134 52.4067 42.6434 52.5534 42.81 52.68C42.8167 52.6867 42.8267 52.6934 42.84 52.7C43.1934 52.9534 43.6334 53.08 44.16 53.08C44.7267 53.08 45.1767 52.9534 45.51 52.7C45.6634 52.58 45.7834 52.4434 45.87 52.29C45.97 52.1034 46.02 51.8934 46.02 51.66C46.02 51.4067 45.96 51.1934 45.84 51.02C45.7067 50.8067 45.49 50.65 45.19 50.55C45.4234 50.4434 45.6067 50.3034 45.74 50.13C45.8134 50.0234 45.8667 49.9134 45.9 49.8C45.92 49.7134 45.93 49.6267 45.93 49.54C45.93 49.2467 45.8634 49 45.73 48.8C45.6634 48.6934 45.5734 48.5967 45.46 48.51C45.1534 48.2767 44.72 48.16 44.16 48.16C43.6934 48.16 43.2967 48.2667 42.97 48.48C42.9367 48.5 42.9034 48.5234 42.87 48.55C42.67 48.7034 42.53 48.8767 42.45 49.07C42.3834 49.2234 42.35 49.39 42.35 49.57H43.16C43.16 49.5167 43.1667 49.4634 43.18 49.41C43.2134 49.27 43.3 49.1467 43.44 49.04C43.4667 49.02 43.4934 49.0034 43.52 48.99C43.7 48.8767 43.9134 48.82 44.16 48.82C44.46 48.82 44.6934 48.8834 44.86 49.01C44.94 49.07 45 49.14 45.04 49.22ZM10.11 48.24H9.30004L7.10004 51.71V48.24H6.29004V53H7.10004L9.30004 49.53V53H10.11V48.24ZM12.29 48.91H14.49V48.24H11.48V53H12.29V48.91ZM29.02 48.24H28.21L26.02 51.71V48.24H25.21V53H26.02L28.21 49.53V53H29.02V48.24ZM47.15 48.24V53H49.3C49.88 53 50.3334 52.8834 50.66 52.65C50.78 52.5634 50.8767 52.46 50.95 52.34C51.0767 52.1467 51.14 51.9167 51.14 51.65C51.14 51.49 51.11 51.3434 51.05 51.21C51.01 51.1167 50.9534 51.0267 50.88 50.94C50.8467 50.9067 50.81 50.8734 50.77 50.84C50.61 50.7 50.4134 50.6034 50.18 50.55C50.44 50.4567 50.6367 50.32 50.77 50.14C50.8367 50.0467 50.8867 49.95 50.92 49.85C50.9534 49.7567 50.97 49.6567 50.97 49.55C50.97 49.3034 50.9167 49.0934 50.81 48.92C50.7234 48.7867 50.6067 48.67 50.46 48.57C50.12 48.35 49.6334 48.24 49 48.24H47.15ZM56.1 48.24H55.29L53.1 51.71V48.24H52.28V53H53.1L55.29 49.53V53H56.1V48.24ZM57.48 48.24V53H59.63C60.2167 53 60.67 52.8834 60.99 52.65C61.1167 52.5634 61.2167 52.46 61.29 52.34C61.41 52.1467 61.47 51.9167 61.47 51.65C61.47 51.49 61.4434 51.3434 61.39 51.21C61.3434 51.1167 61.2834 51.0267 61.21 50.94C61.1767 50.9067 61.14 50.8734 61.1 50.84C60.9467 50.7 60.7534 50.6034 60.52 50.55C60.78 50.4567 60.9734 50.32 61.1 50.14C61.1734 50.0467 61.2234 49.95 61.25 49.85C61.2834 49.7567 61.3 49.6567 61.3 49.55C61.3 49.3034 61.2467 49.0934 61.14 48.92C61.06 48.7867 60.9434 48.67 60.79 48.57C60.4567 48.35 59.9734 48.24 59.34 48.24H57.48ZM71.33 48.24H70.52L68.33 51.71V48.24H67.52V53H68.33L70.52 49.53V53H71.33V48.24ZM80.98 53V48.24H78.99C78.4434 48.24 78.0067 48.3734 77.68 48.64C77.5334 48.76 77.42 48.9 77.34 49.06C77.24 49.2467 77.19 49.4567 77.19 49.69C77.19 49.9234 77.2367 50.1334 77.33 50.32C77.3567 50.3867 77.3934 50.45 77.44 50.51C77.46 50.5434 77.4834 50.5767 77.51 50.61C77.67 50.79 77.88 50.9267 78.14 51.02L76.94 53H77.82L78.94 51.14H80.17V53H80.98ZM87.59 53H88.41V48.24H84.59V53H85.41V48.91H87.59V53ZM107.81 50.93H108.38L109.71 53H110.74L109.04 50.54L110.58 48.24H109.6L108.36 50.21H107.81V48.24H107V50.21H106.44L105.21 48.24H104.23L105.77 50.53L104.07 53H105.09L106.43 50.93H107V53H107.81V50.93ZM111.72 51.98L111.44 52.33H111.07V54.39H111.88V53H115.2V54.39H116.01V52.33H115.4V48.24H112.34L112.26 50.14C112.22 50.96 112.04 51.5734 111.72 51.98ZM125.7 48.24H124.88L122.69 51.71V48.24H121.88V53H122.69L124.88 49.53V53H125.7V48.24ZM90.68 51.94C90.4334 51.62 90.31 51.1967 90.31 50.67C90.31 50.0767 90.4334 49.62 90.68 49.3C90.8067 49.14 90.9534 49.02 91.12 48.94C91.28 48.86 91.4567 48.82 91.65 48.82C91.8634 48.82 92.0534 48.8634 92.22 48.95C92.38 49.03 92.52 49.15 92.64 49.31C92.8867 49.63 93.01 50.05 93.01 50.57C93.01 51.1567 92.89 51.61 92.65 51.93C92.53 52.0834 92.3934 52.2034 92.24 52.29C92.0734 52.3767 91.88 52.42 91.66 52.42C91.4467 52.42 91.2567 52.3767 91.09 52.29C90.9367 52.21 90.8 52.0934 90.68 51.94ZM101.23 48.91C101.37 48.85 101.523 48.82 101.69 48.82C101.917 48.82 102.113 48.87 102.28 48.97C102.36 49.0234 102.433 49.0867 102.5 49.16C102.7 49.3867 102.81 49.7067 102.83 50.12V50.18H100.45C100.503 49.7534 100.643 49.42 100.87 49.18C100.977 49.06 101.097 48.97 101.23 48.91ZM18.05 49.31C18.2767 49.6167 18.39 50.04 18.39 50.58C18.39 51.1867 18.2767 51.6467 18.05 51.96C17.9367 52.1067 17.8067 52.22 17.66 52.3C17.5 52.38 17.32 52.42 17.12 52.42C16.8667 52.42 16.6467 52.3634 16.46 52.25C16.2734 52.1434 16.12 51.9834 16 51.77V49.5C16.1267 49.2734 16.2867 49.1034 16.48 48.99C16.66 48.89 16.87 48.84 17.11 48.84C17.3234 48.84 17.5134 48.8867 17.68 48.98C17.82 49.0534 17.9434 49.1634 18.05 49.31ZM35.42 49.31C35.6467 49.6167 35.76 50.04 35.76 50.58C35.76 51.1867 35.6467 51.6467 35.42 51.96C35.3067 52.1067 35.1734 52.22 35.02 52.3C34.8667 52.38 34.69 52.42 34.49 52.42C34.23 52.42 34.0067 52.3634 33.82 52.25C33.64 52.1434 33.49 51.9834 33.37 51.77V49.5C33.4967 49.2734 33.6567 49.1034 33.85 48.99C34.03 48.89 34.24 48.84 34.48 48.84C34.6934 48.84 34.8834 48.8867 35.05 48.98C35.19 49.0534 35.3134 49.1634 35.42 49.31ZM49.01 50.26H47.96V48.9H49.07C49.5967 48.9134 49.93 49.0367 50.07 49.27C50.1234 49.3634 50.15 49.47 50.15 49.59C50.15 49.7034 50.1267 49.8034 50.08 49.89C49.9334 50.1367 49.5767 50.26 49.01 50.26ZM59.35 50.26H58.3V48.9H59.41C59.93 48.9134 60.2634 49.0367 60.41 49.27C60.4634 49.3634 60.49 49.47 60.49 49.59C60.49 49.7034 60.4634 49.8034 60.41 49.89C60.27 50.1367 59.9167 50.26 59.35 50.26ZM78.1 50.08C78.04 49.9734 78.01 49.8467 78.01 49.7C78.01 49.5734 78.0367 49.46 78.09 49.36C78.13 49.2734 78.1934 49.1934 78.28 49.12C78.46 48.9734 78.7 48.9 79 48.9H80.17V50.48H78.88C78.6467 50.4734 78.4567 50.4167 78.31 50.31C78.29 50.29 78.27 50.2734 78.25 50.26C78.19 50.2067 78.14 50.1467 78.1 50.08ZM114.59 52.33H112.4C112.8 51.8034 113.023 51.07 113.07 50.13L113.12 48.99H114.59V52.33ZM96.09 49.36C96.2834 49.24 96.51 49.18 96.77 49.18C97.05 49.18 97.29 49.2434 97.49 49.37C97.5834 49.43 97.6667 49.5034 97.74 49.59C97.76 49.61 97.78 49.6334 97.8 49.66C97.9934 49.92 98.09 50.2567 98.09 50.67C98.09 51.2434 97.9734 51.68 97.74 51.98C97.64 52.1 97.5267 52.1967 97.4 52.27C97.2267 52.37 97.02 52.42 96.78 52.42C96.5534 52.42 96.35 52.3734 96.17 52.28C96.0434 52.2067 95.93 52.1067 95.83 51.98C95.59 51.68 95.47 51.2767 95.47 50.77V50.7C95.47 50.22 95.59 49.8467 95.83 49.58C95.9034 49.4934 95.99 49.42 96.09 49.36ZM22.1 52.35C22.0134 52.37 21.9234 52.38 21.83 52.38C21.5967 52.38 21.4 52.3267 21.24 52.22C21.22 52.2 21.1967 52.18 21.17 52.16C21.1167 52.1134 21.0734 52.0634 21.04 52.01C20.96 51.89 20.92 51.74 20.92 51.56C20.92 51.4134 20.95 51.2834 21.01 51.17C21.2034 50.85 21.67 50.69 22.41 50.69H23.05V51.66C23.03 51.7 23.01 51.7367 22.99 51.77C22.89 51.93 22.7434 52.0667 22.55 52.18C22.41 52.26 22.26 52.3167 22.1 52.35ZM39.47 52.35C39.3767 52.37 39.2834 52.38 39.19 52.38C38.9634 52.38 38.77 52.3267 38.61 52.22C38.5834 52.2 38.56 52.18 38.54 52.16C38.4867 52.1134 38.44 52.0634 38.4 52.01C38.32 51.89 38.28 51.74 38.28 51.56C38.28 51.4134 38.3134 51.2834 38.38 51.17C38.5667 50.85 39.0334 50.69 39.78 50.69H40.41V51.66C40.3967 51.7 40.38 51.7367 40.36 51.77C40.2534 51.93 40.1067 52.0667 39.92 52.18C39.7734 52.26 39.6234 52.3167 39.47 52.35ZM64.41 52.35C64.3234 52.37 64.2334 52.38 64.14 52.38C63.9067 52.38 63.7134 52.3267 63.56 52.22C63.5334 52.2 63.5067 52.18 63.48 52.16C63.4267 52.1134 63.3834 52.0634 63.35 52.01C63.27 51.89 63.23 51.74 63.23 51.56C63.23 51.4134 63.26 51.2834 63.32 51.17C63.5134 50.85 63.98 50.69 64.72 50.69H65.36V51.66C65.34 51.7 65.32 51.7367 65.3 51.77C65.2 51.93 65.0534 52.0667 64.86 52.18C64.72 52.26 64.57 52.3167 64.41 52.35ZM118.78 52.35C118.687 52.37 118.593 52.38 118.5 52.38C118.267 52.38 118.073 52.3267 117.92 52.22C117.893 52.2 117.867 52.18 117.84 52.16C117.787 52.1134 117.743 52.0634 117.71 52.01C117.63 51.89 117.59 51.74 117.59 51.56C117.59 51.4134 117.62 51.2834 117.68 51.17C117.873 50.85 118.34 50.69 119.08 50.69H119.72V51.66C119.7 51.7 119.68 51.7367 119.66 51.77C119.56 51.93 119.413 52.0667 119.22 52.18C119.08 52.26 118.933 52.3167 118.78 52.35ZM47.96 52.34V50.91H49.27C49.75 50.91 50.0634 51.02 50.21 51.24C50.2834 51.34 50.32 51.4667 50.32 51.62C50.32 51.76 50.29 51.88 50.23 51.98C50.19 52.0467 50.1367 52.1034 50.07 52.15C49.8967 52.2767 49.64 52.34 49.3 52.34H47.96ZM58.3 52.34V50.91H59.61C60.0834 50.91 60.3967 51.02 60.55 51.24C60.6234 51.34 60.66 51.4667 60.66 51.62C60.66 51.76 60.6267 51.88 60.56 51.98C60.52 52.0467 60.4667 52.1034 60.4 52.15C60.2334 52.2767 59.98 52.34 59.64 52.34H58.3Z" fill="#6B21A8"/>
</g>
<defs>
<radialGradient id="paint0_radial_19_258" cx="0" cy="0" r="1" gradientUnits="userSpaceOnUse" gradientTransform="translate(17.0145 33) scale(98.913 459.239)">
<stop offset="0.001728" stop-color="#6A3500" stop-opacity="0.639216"/>
<stop offset="0.517665" stop-color="#6A3500"/>
<stop offset="1" stop-color="#6A3500" stop-opacity="0.639216"/>
</radialGradient>
<clipPath id="clip0_19_258">
<rect width="132" height="55" fill="white"/>
</clipPath>
</defs>
</svg>
